<?xml version="1.0" standalone="no"?>
<!DOCTYPE svg PUBLIC "-//W3C//DTD SVG 20010904//EN"
 "http://www.w3.org/TR/2001/REC-SVG-20010904/DTD/svg10.dtd">
<svg version="1.0" xmlns="http://www.w3.org/2000/svg"
 width="245.000000pt" height="345.000000pt" viewBox="0 0 245.000000 345.000000"
 preserveAspectRatio="xMidYMid meet">
<metadata>
Created by potrace 1.16, written by Peter Selinger 2001-2019
</metadata>
<g transform="translate(0.000000,345.000000) scale(0.100000,-0.100000)"
fill="#000000" stroke="none">
<path d="M382 2453 c1 -549 5 -957 8 -908 3 50 8 74 9 55 2 -19 3 -41 2 -47
-1 -8 5 -10 16 -7 17 5 17 5 1 -6 -10 -6 -18 -20 -18 -32 0 -17 2 -18 15 -8
23 19 18 4 -8 -24 -33 -36 -37 -110 -37 -781 0 -552 5 -720 21 -680 7 17 8 18
8 3 1 -17 19 -18 235 -18 145 0 237 4 241 10 14 23 43 30 56 13 12 -14 11 -15
-9 -9 -13 4 -22 3 -22 -3 0 -7 192 -10 585 -11 l585 0 1 67 c0 63 0 425 -1
431 0 1 -11 -5 -26 -14 -19 -13 -28 -14 -37 -5 -9 10 -9 11 3 7 8 -3 25 2 38
12 22 17 23 24 25 180 1 89 1 162 -1 162 -1 0 -7 -11 -12 -25 -22 -58 -81 -29
-78 38 1 21 4 33 8 26 4 -6 5 -20 3 -30 -6 -20 22 -54 36 -44 6 3 8 12 5 19
-3 8 5 22 18 32 22 19 23 23 22 179 -1 88 -5 168 -9 178 -4 9 -3 17 2 17 5 0
8 12 7 28 -1 15 -3 514 -3 1110 l-1 1082 -845 0 -845 0 2 -997z m782 311 c3
-9 7 -32 7 -52 1 -36 2 -36 13 13 19 81 54 71 71 -20 l7 -40 12 34 c22 68 68
67 95 -2 18 -47 7 -102 -23 -122 -22 -14 -27 -14 -59 2 -20 10 -38 28 -42 41
-7 28 -45 30 -52 2 -4 -15 -14 -20 -38 -20 -27 0 -35 5 -45 30 -19 46 -28 44
-22 -5 3 -29 1 -45 -7 -45 -12 0 -17 21 -26 108 -7 77 10 84 49 20 l25 -43 1
51 c0 28 3 54 7 57 11 11 20 8 27 -9z m-208 -49 c10 -15 15 -38 12 -59 -3 -31
0 -36 29 -50 18 -9 33 -20 33 -26 0 -14 -11 -13 -54 5 -38 16 -43 11 -24 -30
9 -19 9 -28 0 -37 -9 -9 -15 -3 -26 23 -15 32 -15 33 -16 8 0 -34 -32 -74 -52
-66 -29 11 -68 73 -74 119 -6 42 -4 47 21 64 l28 18 33 -38 33 -38 -15 48
c-13 43 -12 49 3 66 23 25 50 23 69 -7z m-167 -171 c32 -68 38 -94 22 -94 -5
0 -19 25 -31 55 -12 30 -26 55 -31 55 -5 0 -9 -18 -9 -40 0 -45 -5 -48 -33
-22 -19 16 -19 16 -12 -8 4 -14 16 -39 26 -56 23 -38 24 -57 4 -74 -13 -10
-19 -10 -34 4 -19 17 -20 16 -36 -8 -14 -20 -15 -32 -7 -55 8 -23 7 -32 -4
-42 -17 -14 -17 -14 -44 101 -33 142 -27 160 41 102 30 -26 41 -31 35 -17 -23
54 -30 95 -18 107 9 9 16 8 31 -6 17 -15 19 -15 25 -1 3 9 6 27 6 40 0 22 17
37 32 29 3 -2 20 -34 37 -70z m878 68 c6 -4 17 -20 22 -35 6 -16 16 -25 21
-22 16 10 57 -21 66 -47 4 -13 14 -28 22 -34 14 -11 14 -17 0 -69 l-16 -57 39
38 c33 32 39 35 39 18 0 -11 -22 -41 -49 -68 -44 -44 -50 -47 -59 -30 -5 11
-7 24 -5 30 2 7 -5 10 -22 7 -14 -3 -36 2 -51 12 -21 14 -25 22 -20 46 5 27 4
28 -19 17 -53 -24 -89 56 -59 131 22 56 60 83 91 63z m233 -250 c0 -9 -7 -26
-15 -36 -21 -28 -19 -42 3 -23 45 41 100 -2 89 -70 -7 -38 -38 -79 -69 -89
-23 -7 -68 30 -68 57 0 9 -7 19 -15 23 -23 8 -18 33 21 103 33 60 54 73 54 35z
m-1370 -50 c62 -62 63 -162 2 -162 -33 0 -55 20 -77 73 -19 47 -19 81 1 101
22 23 42 20 74 -12z m335 -289 c-16 -23 -16 -25 -1 -20 11 4 16 1 17 -11 0
-14 2 -14 9 3 7 17 9 17 9 3 1 -10 5 -18 10 -18 5 0 7 10 3 23 -5 20 -4 21 13
7 17 -14 18 -14 6 8 -6 12 -8 22 -2 22 14 0 39 -59 65 -157 l24 -90 -29 -1
c-47 -1 -70 -12 -67 -30 4 -18 25 -20 71 -9 25 7 27 5 27 -22 0 -24 -3 -28
-20 -24 -11 3 -17 9 -14 14 7 12 -17 7 -31 -6 -6 -5 -14 -18 -18 -27 -4 -11
-13 -16 -24 -12 -15 5 -15 4 -3 -4 10 -8 18 -8 27 0 9 7 13 7 13 -1 0 -17 27
-13 34 5 3 8 11 12 17 8 32 -19 -17 -220 -68 -276 -14 -16 -17 -16 -42 2 -20
15 -34 17 -61 11 l-35 -8 39 -16 c21 -10 49 -17 62 -17 l23 0 -16 -47 c-20
-61 -30 -73 -59 -73 -37 0 -59 30 -78 106 -10 38 -24 83 -31 99 -8 17 -20 47
-29 67 -13 34 -13 36 2 31 15 -6 16 -5 2 13 -8 10 -21 25 -27 32 -20 20 -15
40 26 125 35 72 39 77 54 63 8 -9 20 -16 26 -16 6 0 26 -8 46 -17 27 -13 38
-14 47 -5 18 18 -14 46 -76 65 -53 17 -54 18 -46 46 15 53 94 181 112 181 6 0
2 -12 -7 -27z m764 -229 c37 -8 54 -33 45 -70 -4 -17 -2 -29 7 -35 25 -16 40
-9 51 22 13 37 28 22 28 -29 0 -18 7 -40 15 -48 17 -17 20 -54 5 -54 -5 0 -10
5 -10 11 0 6 -5 9 -12 7 -8 -3 -11 -22 -9 -56 1 -28 -3 -60 -9 -72 -6 -12 -9
-24 -7 -27 11 -10 36 55 31 78 -3 13 8 -5 24 -41 l29 -65 -24 -65 c-24 -62
-24 -64 -4 -46 12 11 21 25 21 31 0 7 6 18 14 24 10 9 19 7 37 -8 13 -11 21
-23 16 -27 -4 -4 -13 -2 -19 4 -15 15 -32 16 -23 2 3 -5 -1 -10 -9 -10 -21 0
-31 -20 -16 -33 10 -9 11 -9 6 0 -4 8 1 11 14 10 20 -1 20 -2 -2 -19 -13 -10
-30 -18 -38 -18 -13 0 -13 1 0 10 13 8 12 10 -3 10 -11 0 -22 -12 -28 -30 -6
-16 -15 -30 -20 -30 -5 0 -9 -6 -9 -14 0 -11 10 -14 41 -11 48 5 65 15 27 15
-14 0 -28 6 -31 14 -4 10 1 12 16 9 18 -4 19 -3 7 6 -12 9 -11 11 10 11 56 2
157 60 103 60 -15 0 -16 -2 -3 -10 13 -8 12 -10 -2 -10 -22 0 -23 23 -3 43 8
8 12 17 10 21 -3 3 -1 3 3 -1 5 -5 13 -20 20 -35 8 -20 8 -28 -1 -31 -9 -3 -8
-8 2 -18 9 -9 11 -9 7 -1 -4 6 -5 12 -2 12 3 0 10 -9 17 -21 9 -18 8 -20 -8
-15 -12 4 -27 -1 -40 -13 -13 -13 -25 -16 -34 -10 -23 14 -32 10 -15 -7 17
-17 21 -28 7 -20 -15 10 -40 -5 -34 -20 6 -16 -17 -19 -32 -5 -25 24 -96 7
-114 -27 -18 -35 -58 -16 -86 39 -14 27 -25 54 -25 61 0 8 25 38 56 68 30 30
60 63 65 74 6 12 -26 -16 -71 -62 -105 -106 -153 -127 -185 -78 -20 30 -95
291 -95 329 0 20 4 26 13 21 8 -6 8 -3 -1 9 -12 14 -10 16 15 14 15 -1 31 -9
35 -17 5 -11 7 -9 7 8 1 16 -9 27 -34 39 -42 20 -44 29 -9 37 39 10 28 42 -13
39 -26 -2 -31 1 -30 17 1 11 8 20 16 20 8 0 25 10 38 22 20 19 27 20 43 10 36
-22 92 -12 128 25 12 12 17 12 31 -1 10 -9 32 -19 50 -22z m307 -669 c4 -8 12
-15 19 -15 18 0 45 -55 45 -90 0 -31 -32 -76 -60 -85 -24 -8 -56 9 -71 36 -16
30 -22 96 -9 104 5 3 10 15 10 25 0 33 55 54 66 25z m-884 -34 c25 -43 72
-194 97 -304 l19 -88 -25 -29 c-30 -36 -53 -39 -53 -6 0 14 -10 30 -24 39 -13
9 -31 23 -40 33 -17 16 -16 18 8 39 36 31 52 111 36 171 -14 49 -36 67 -90 70
-48 3 -47 3 -30 14 13 8 13 10 -2 10 -9 0 -18 6 -21 13 -6 18 4 47 15 47 6 0
5 7 -2 16 -12 13 -7 15 40 12 49 -3 55 -6 72 -37z m-382 -10 c0 -5 8 -7 19 -4
26 7 37 -37 14 -54 -9 -7 -12 -13 -5 -13 7 0 12 -4 12 -10 0 -5 -12 -10 -27
-10 -17 0 -38 -13 -63 -38 -31 -34 -36 -45 -34 -83 2 -53 35 -134 59 -143 9
-3 30 -6 46 -6 16 0 29 -2 29 -5 0 -9 -63 -150 -71 -159 -11 -13 -56 19 -72
52 -8 15 -13 38 -10 52 2 13 -6 65 -18 114 -31 135 -13 266 37 266 7 0 14 -5
16 -11 2 -7 10 -4 18 7 9 11 10 15 3 10 -23 -13 -14 12 9 28 25 18 38 20 38 7z
m730 -193 c37 -62 21 -147 -32 -169 -27 -11 -32 -10 -59 17 -28 29 -33 50 -27
117 2 28 44 67 73 67 18 0 31 -9 45 -32z"/>
</g>
</svg>
